# xmcd
#
# Track frame offsets:
#	150
#	17799
#	39470
#	55771
#	72333
#	96042
#	109128
#	129224
#	149320
#	167143
#	177037
#
# Disc length: 2608 seconds
#
# Revision: 1
# Processed by: cddbd v1.5.2PL0 Copyright (c) Steve Scherf et al.
# Submitted via: audiograbber 1.83.01
#
DISCID=8e0a2e0b
DTITLE=Rosie Flores - Simple Case of the Blues
DYEAR=1900
DGENRE=Blues
TTITLE0=Love Don't Love Nobody
TTITLE1=Mercy Fell Like Rain
TTITLE2=I Want To Do More
TTITLE3=Simple Case of the Blues
TTITLE4=Drive Drive Drive
TTITLE5=Till The Well Runs Dry
TTITLE6=If There Was A Way
TTITLE7=If There Was A Way
TTITLE8=Enemy Hands
TTITLE9=Teenage Rampage
TTITLE10=If You Need Me
EXTD=
EXTT0=
EXTT1=
EXTT2=
EXTT3=
EXTT4=
EXTT5=
EXTT6=
EXTT7=
EXTT8=
EXTT9=
EXTT10=
PLAYORDER=
